<?xml version="1.0" encoding="utf-8" ?>
<svg baseProfile="tiny" height="400" version="1.2" width="600" xmlns="http://www.w3.org/2000/svg" xmlns:ev="http://www.w3.org/2001/xml-events" xmlns:xlink="http://www.w3.org/1999/xlink"><defs /><line stroke="black" stroke-width="3" x1="81" x2="82" y1="257" y2="247" /><line stroke="black" stroke-width="3" x1="82" x2="84" y1="247" y2="236" /><line stroke="black" stroke-width="3" x1="84" x2="86" y1="236" y2="225" /><line stroke="black" stroke-width="3" x1="86" x2="87" y1="225" y2="213" /><line stroke="black" stroke-width="3" x1="87" x2="90" y1="213" y2="202" /><line stroke="black" stroke-width="3" x1="90" x2="93" y1="202" y2="189" /><line stroke="black" stroke-width="3" x1="93" x2="96" y1="189" y2="177" /><line stroke="black" stroke-width="3" x1="96" x2="99" y1="177" y2="167" /><line stroke="black" stroke-width="3" x1="99" x2="103" y1="167" y2="157" /><line stroke="black" stroke-width="3" x1="103" x2="105" y1="157" y2="150" /><line stroke="black" stroke-width="3" x1="105" x2="109" y1="150" y2="144" /><line stroke="black" stroke-width="3" x1="109" x2="112" y1="144" y2="138" /><line stroke="black" stroke-width="3" x1="112" x2="116" y1="138" y2="132" /><line stroke="black" stroke-width="3" x1="116" x2="119" y1="132" y2="129" /><line stroke="black" stroke-width="3" x1="119" x2="123" y1="129" y2="124" /><line stroke="black" stroke-width="3" x1="123" x2="127" y1="124" y2="121" /><line stroke="black" stroke-width="3" x1="127" x2="130" y1="121" y2="119" /><line stroke="black" stroke-width="3" x1="130" x2="134" y1="119" y2="116" /><line stroke="black" stroke-width="3" x1="134" x2="137" y1="116" y2="114" /><line stroke="black" stroke-width="3" x1="137" x2="141" y1="114" y2="113" /><line stroke="black" stroke-width="3" x1="141" x2="144" y1="113" y2="113" /><line stroke="black" stroke-width="3" x1="144" x2="148" y1="113" y2="113" /><line stroke="black" stroke-width="3" x1="148" x2="153" y1="113" y2="114" /><line stroke="black" stroke-width="3" x1="153" x2="158" y1="114" y2="118" /><line stroke="black" stroke-width="3" x1="158" x2="164" y1="118" y2="123" /><line stroke="black" stroke-width="3" x1="164" x2="171" y1="123" y2="133" /><line stroke="black" stroke-width="3" x1="171" x2="179" y1="133" y2="149" /><line stroke="black" stroke-width="3" x1="179" x2="188" y1="149" y2="172" /><line stroke="black" stroke-width="3" x1="188" x2="194" y1="172" y2="194" /><line stroke="black" stroke-width="3" x1="194" x2="198" y1="194" y2="212" /><line stroke="black" stroke-width="3" x1="198" x2="200" y1="212" y2="227" /><line stroke="black" stroke-width="3" x1="200" x2="200" y1="227" y2="242" /><line stroke="black" stroke-width="3" x1="200" x2="201" y1="242" y2="257" /><line stroke="black" stroke-width="3" x1="201" x2="203" y1="257" y2="269" /><line stroke="black" stroke-width="3" x1="203" x2="203" y1="269" y2="282" /><line stroke="black" stroke-width="3" x1="203" x2="204" y1="282" y2="291" /><line stroke="black" stroke-width="3" x1="204" x2="204" y1="291" y2="301" /><line stroke="black" stroke-width="3" x1="204" x2="204" y1="301" y2="309" /><line stroke="black" stroke-width="3" x1="204" x2="204" y1="309" y2="313" /><line stroke="black" stroke-width="3" x1="204" x2="204" y1="313" y2="316" /><line stroke="black" stroke-width="3" x1="204" x2="204" y1="316" y2="318" /><line stroke="black" stroke-width="3" x1="204" x2="204" y1="318" y2="319" /><line stroke="black" stroke-width="3" x1="204" x2="204" y1="319" y2="320" /><line stroke="black" stroke-width="3" x1="204" x2="205" y1="320" y2="320" /><line stroke="black" stroke-width="3" x1="205" x2="206" y1="320" y2="320" /><line stroke="black" stroke-width="3" x1="206" x2="208" y1="320" y2="319" /><line stroke="black" stroke-width="3" x1="208" x2="209" y1="319" y2="316" /><line stroke="black" stroke-width="3" x1="209" x2="215" y1="316" y2="311" /><line stroke="black" stroke-width="3" x1="215" x2="223" y1="311" y2="302" /><line stroke="black" stroke-width="3" x1="223" x2="235" y1="302" y2="291" /><line stroke="black" stroke-width="3" x1="235" x2="254" y1="291" y2="276" /><line stroke="black" stroke-width="3" x1="254" x2="274" y1="276" y2="263" /><line stroke="black" stroke-width="3" x1="274" x2="292" y1="263" y2="250" /><line stroke="black" stroke-width="3" x1="292" x2="309" y1="250" y2="239" /><line stroke="black" stroke-width="3" x1="309" x2="322" y1="239" y2="232" /><line stroke="black" stroke-width="3" x1="322" x2="333" y1="232" y2="226" /><line stroke="black" stroke-width="3" x1="333" x2="343" y1="226" y2="222" /><line stroke="black" stroke-width="3" x1="343" x2="351" y1="222" y2="217" /><line stroke="black" stroke-width="3" x1="351" x2="359" y1="217" y2="213" /><line stroke="black" stroke-width="3" x1="359" x2="365" y1="213" y2="210" /><line stroke="black" stroke-width="3" x1="365" x2="370" y1="210" y2="207" /><line stroke="black" stroke-width="3" x1="370" x2="374" y1="207" y2="204" /><line stroke="black" stroke-width="3" x1="374" x2="378" y1="204" y2="200" /><line stroke="black" stroke-width="3" x1="378" x2="380" y1="200" y2="198" /><line stroke="black" stroke-width="3" x1="380" x2="384" y1="198" y2="193" /><line stroke="black" stroke-width="3" x1="384" x2="387" y1="193" y2="188" /><line stroke="black" stroke-width="3" x1="387" x2="389" y1="188" y2="181" /><line stroke="black" stroke-width="3" x1="389" x2="392" y1="181" y2="175" /><line stroke="black" stroke-width="3" x1="392" x2="395" y1="175" y2="171" /><line stroke="black" stroke-width="3" x1="395" x2="396" y1="171" y2="166" /><line stroke="black" stroke-width="3" x1="396" x2="398" y1="166" y2="163" /><line stroke="black" stroke-width="3" x1="398" x2="399" y1="163" y2="161" /><line stroke="black" stroke-width="3" x1="399" x2="400" y1="161" y2="159" /><line stroke="black" stroke-width="3" x1="400" x2="400" y1="159" y2="158" /><line stroke="black" stroke-width="3" x1="400" x2="400" y1="158" y2="157" /><line stroke="black" stroke-width="3" x1="400" x2="401" y1="157" y2="156" /><line stroke="black" stroke-width="3" x1="401" x2="402" y1="156" y2="156" /><line stroke="black" stroke-width="3" x1="402" x2="403" y1="156" y2="156" /><line stroke="black" stroke-width="3" x1="403" x2="404" y1="156" y2="158" /><line stroke="black" stroke-width="3" x1="404" x2="405" y1="158" y2="161" /><line stroke="black" stroke-width="3" x1="405" x2="406" y1="161" y2="165" /><line stroke="black" stroke-width="3" x1="406" x2="407" y1="165" y2="171" /><line stroke="black" stroke-width="3" x1="407" x2="409" y1="171" y2="178" /><line stroke="black" stroke-width="3" x1="409" x2="411" y1="178" y2="183" /><line stroke="black" stroke-width="3" x1="411" x2="413" y1="183" y2="189" /><line stroke="black" stroke-width="3" x1="413" x2="414" y1="189" y2="193" /><line stroke="black" stroke-width="3" x1="414" x2="416" y1="193" y2="198" /><line stroke="black" stroke-width="3" x1="416" x2="419" y1="198" y2="203" /><line stroke="black" stroke-width="3" x1="419" x2="421" y1="203" y2="206" /><line stroke="black" stroke-width="3" x1="421" x2="422" y1="206" y2="210" /><line stroke="black" stroke-width="3" x1="422" x2="425" y1="210" y2="213" /><line stroke="black" stroke-width="3" x1="425" x2="427" y1="213" y2="215" /><line stroke="black" stroke-width="3" x1="427" x2="430" y1="215" y2="218" /><line stroke="black" stroke-width="3" x1="430" x2="432" y1="218" y2="220" /><line stroke="black" stroke-width="3" x1="432" x2="434" y1="220" y2="222" /><line stroke="black" stroke-width="3" x1="434" x2="438" y1="222" y2="224" /><line stroke="black" stroke-width="3" x1="438" x2="440" y1="224" y2="226" /><line stroke="black" stroke-width="3" x1="440" x2="442" y1="226" y2="227" /><line stroke="black" stroke-width="3" x1="442" x2="445" y1="227" y2="228" /><line stroke="black" stroke-width="3" x1="445" x2="448" y1="228" y2="230" /><line stroke="black" stroke-width="3" x1="448" x2="448" y1="230" y2="231" /></svg>