<?xml version="1.0" encoding="utf-8" ?>
<svg baseProfile="tiny" height="400" version="1.2" width="600" xmlns="http://www.w3.org/2000/svg" xmlns:ev="http://www.w3.org/2001/xml-events" xmlns:xlink="http://www.w3.org/1999/xlink"><defs /><line stroke="black" stroke-width="3" x1="72" x2="72" y1="328" y2="315" /><line stroke="black" stroke-width="3" x1="72" x2="70" y1="315" y2="258" /><line stroke="black" stroke-width="3" x1="70" x2="70" y1="258" y2="241" /><line stroke="black" stroke-width="3" x1="70" x2="70" y1="241" y2="228" /><line stroke="black" stroke-width="3" x1="70" x2="71" y1="228" y2="214" /><line stroke="black" stroke-width="3" x1="71" x2="72" y1="214" y2="202" /><line stroke="black" stroke-width="3" x1="72" x2="74" y1="202" y2="188" /><line stroke="black" stroke-width="3" x1="74" x2="77" y1="188" y2="175" /><line stroke="black" stroke-width="3" x1="77" x2="82" y1="175" y2="162" /><line stroke="black" stroke-width="3" x1="82" x2="87" y1="162" y2="150" /><line stroke="black" stroke-width="3" x1="87" x2="93" y1="150" y2="139" /><line stroke="black" stroke-width="3" x1="93" x2="98" y1="139" y2="129" /><line stroke="black" stroke-width="3" x1="98" x2="105" y1="129" y2="120" /><line stroke="black" stroke-width="3" x1="105" x2="111" y1="120" y2="112" /><line stroke="black" stroke-width="3" x1="111" x2="120" y1="112" y2="105" /><line stroke="black" stroke-width="3" x1="120" x2="130" y1="105" y2="97" /><line stroke="black" stroke-width="3" x1="130" x2="138" y1="97" y2="93" /><line stroke="black" stroke-width="3" x1="138" x2="148" y1="93" y2="89" /><line stroke="black" stroke-width="3" x1="148" x2="156" y1="89" y2="88" /><line stroke="black" stroke-width="3" x1="156" x2="164" y1="88" y2="88" /><line stroke="black" stroke-width="3" x1="164" x2="173" y1="88" y2="90" /><line stroke="black" stroke-width="3" x1="173" x2="181" y1="90" y2="96" /><line stroke="black" stroke-width="3" x1="181" x2="190" y1="96" y2="103" /><line stroke="black" stroke-width="3" x1="190" x2="201" y1="103" y2="117" /><line stroke="black" stroke-width="3" x1="201" x2="213" y1="117" y2="136" /><line stroke="black" stroke-width="3" x1="213" x2="222" y1="136" y2="152" /><line stroke="black" stroke-width="3" x1="222" x2="228" y1="152" y2="164" /><line stroke="black" stroke-width="3" x1="228" x2="231" y1="164" y2="174" /><line stroke="black" stroke-width="3" x1="231" x2="233" y1="174" y2="180" /><line stroke="black" stroke-width="3" x1="233" x2="234" y1="180" y2="184" /><line stroke="black" stroke-width="3" x1="234" x2="234" y1="184" y2="186" /><line stroke="black" stroke-width="3" x1="234" x2="234" y1="186" y2="187" /><line stroke="black" stroke-width="3" x1="234" x2="234" y1="187" y2="189" /><line stroke="black" stroke-width="3" x1="234" x2="234" y1="189" y2="190" /><line stroke="black" stroke-width="3" x1="234" x2="234" y1="190" y2="191" /><line stroke="black" stroke-width="3" x1="234" x2="234" y1="191" y2="192" /><line stroke="black" stroke-width="3" x1="234" x2="234" y1="192" y2="193" /><line stroke="black" stroke-width="3" x1="234" x2="235" y1="193" y2="194" /><line stroke="black" stroke-width="3" x1="235" x2="235" y1="194" y2="196" /><line stroke="black" stroke-width="3" x1="235" x2="236" y1="196" y2="199" /><line stroke="black" stroke-width="3" x1="236" x2="237" y1="199" y2="205" /><line stroke="black" stroke-width="3" x1="237" x2="239" y1="205" y2="211" /><line stroke="black" stroke-width="3" x1="239" x2="240" y1="211" y2="216" /><line stroke="black" stroke-width="3" x1="240" x2="240" y1="216" y2="222" /><line stroke="black" stroke-width="3" x1="240" x2="242" y1="222" y2="227" /><line stroke="black" stroke-width="3" x1="242" x2="244" y1="227" y2="233" /><line stroke="black" stroke-width="3" x1="244" x2="246" y1="233" y2="238" /><line stroke="black" stroke-width="3" x1="246" x2="249" y1="238" y2="241" /><line stroke="black" stroke-width="3" x1="249" x2="252" y1="241" y2="246" /><line stroke="black" stroke-width="3" x1="252" x2="254" y1="246" y2="248" /><line stroke="black" stroke-width="3" x1="254" x2="256" y1="248" y2="251" /><line stroke="black" stroke-width="3" x1="256" x2="261" y1="251" y2="252" /><line stroke="black" stroke-width="3" x1="261" x2="264" y1="252" y2="253" /><line stroke="black" stroke-width="3" x1="264" x2="269" y1="253" y2="254" /><line stroke="black" stroke-width="3" x1="269" x2="276" y1="254" y2="254" /><line stroke="black" stroke-width="3" x1="276" x2="287" y1="254" y2="250" /><line stroke="black" stroke-width="3" x1="287" x2="299" y1="250" y2="247" /><line stroke="black" stroke-width="3" x1="299" x2="313" y1="247" y2="242" /><line stroke="black" stroke-width="3" x1="313" x2="333" y1="242" y2="235" /><line stroke="black" stroke-width="3" x1="333" x2="347" y1="235" y2="232" /><line stroke="black" stroke-width="3" x1="347" x2="359" y1="232" y2="230" /><line stroke="black" stroke-width="3" x1="359" x2="370" y1="230" y2="229" /><line stroke="black" stroke-width="3" x1="370" x2="381" y1="229" y2="227" /><line stroke="black" stroke-width="3" x1="381" x2="392" y1="227" y2="228" /><line stroke="black" stroke-width="3" x1="392" x2="400" y1="228" y2="229" /><line stroke="black" stroke-width="3" x1="400" x2="406" y1="229" y2="230" /><line stroke="black" stroke-width="3" x1="406" x2="411" y1="230" y2="230" /><line stroke="black" stroke-width="3" x1="411" x2="416" y1="230" y2="231" /><line stroke="black" stroke-width="3" x1="416" x2="419" y1="231" y2="232" /><line stroke="black" stroke-width="3" x1="419" x2="422" y1="232" y2="232" /><line stroke="black" stroke-width="3" x1="422" x2="424" y1="232" y2="232" /><line stroke="black" stroke-width="3" x1="424" x2="427" y1="232" y2="232" /><line stroke="black" stroke-width="3" x1="427" x2="430" y1="232" y2="232" /><line stroke="black" stroke-width="3" x1="430" x2="433" y1="232" y2="232" /><line stroke="black" stroke-width="3" x1="433" x2="435" y1="232" y2="232" /><line stroke="black" stroke-width="3" x1="435" x2="437" y1="232" y2="232" /><line stroke="black" stroke-width="3" x1="437" x2="440" y1="232" y2="231" /><line stroke="black" stroke-width="3" x1="440" x2="443" y1="231" y2="228" /><line stroke="black" stroke-width="3" x1="443" x2="446" y1="228" y2="226" /><line stroke="black" stroke-width="3" x1="446" x2="450" y1="226" y2="220" /><line stroke="black" stroke-width="3" x1="450" x2="453" y1="220" y2="214" /><line stroke="black" stroke-width="3" x1="453" x2="457" y1="214" y2="205" /><line stroke="black" stroke-width="3" x1="457" x2="461" y1="205" y2="196" /><line stroke="black" stroke-width="3" x1="461" x2="463" y1="196" y2="184" /><line stroke="black" stroke-width="3" x1="463" x2="465" y1="184" y2="172" /><line stroke="black" stroke-width="3" x1="465" x2="466" y1="172" y2="158" /><line stroke="black" stroke-width="3" x1="466" x2="466" y1="158" y2="146" /><line stroke="black" stroke-width="3" x1="466" x2="466" y1="146" y2="136" /><line stroke="black" stroke-width="3" x1="466" x2="463" y1="136" y2="126" /><line stroke="black" stroke-width="3" x1="463" x2="462" y1="126" y2="119" /><line stroke="black" stroke-width="3" x1="462" x2="461" y1="119" y2="113" /><line stroke="black" stroke-width="3" x1="461" x2="459" y1="113" y2="110" /><line stroke="black" stroke-width="3" x1="459" x2="457" y1="110" y2="106" /><line stroke="black" stroke-width="3" x1="457" x2="455" y1="106" y2="101" /><line stroke="black" stroke-width="3" x1="455" x2="454" y1="101" y2="98" /><line stroke="black" stroke-width="3" x1="454" x2="453" y1="98" y2="96" /><line stroke="black" stroke-width="3" x1="453" x2="451" y1="96" y2="92" /><line stroke="black" stroke-width="3" x1="451" x2="451" y1="92" y2="89" /><line stroke="black" stroke-width="3" x1="451" x2="450" y1="89" y2="87" /><line stroke="black" stroke-width="3" x1="450" x2="449" y1="87" y2="85" /><line stroke="black" stroke-width="3" x1="449" x2="449" y1="85" y2="83" /><line stroke="black" stroke-width="3" x1="449" x2="449" y1="83" y2="81" /><line stroke="black" stroke-width="3" x1="449" x2="449" y1="81" y2="80" /><line stroke="black" stroke-width="3" x1="449" x2="449" y1="80" y2="79" /><line stroke="black" stroke-width="3" x1="449" x2="449" y1="79" y2="78" /><line stroke="black" stroke-width="3" x1="449" x2="449" y1="78" y2="77" /><line stroke="black" stroke-width="3" x1="449" x2="448" y1="77" y2="77" /><line stroke="black" stroke-width="3" x1="448" x2="447" y1="77" y2="77" /></svg>