<?xml version="1.0" encoding="utf-8" ?>
<svg baseProfile="tiny" height="400" version="1.2" width="600" xmlns="http://www.w3.org/2000/svg" xmlns:ev="http://www.w3.org/2001/xml-events" xmlns:xlink="http://www.w3.org/1999/xlink"><defs /><line stroke="black" stroke-width="3" x1="110" x2="118" y1="241" y2="230" /><line stroke="black" stroke-width="3" x1="118" x2="128" y1="230" y2="215" /><line stroke="black" stroke-width="3" x1="128" x2="141" y1="215" y2="196" /><line stroke="black" stroke-width="3" x1="141" x2="150" y1="196" y2="180" /><line stroke="black" stroke-width="3" x1="150" x2="159" y1="180" y2="166" /><line stroke="black" stroke-width="3" x1="159" x2="167" y1="166" y2="155" /><line stroke="black" stroke-width="3" x1="167" x2="175" y1="155" y2="144" /><line stroke="black" stroke-width="3" x1="175" x2="184" y1="144" y2="135" /><line stroke="black" stroke-width="3" x1="184" x2="191" y1="135" y2="126" /><line stroke="black" stroke-width="3" x1="191" x2="200" y1="126" y2="117" /><line stroke="black" stroke-width="3" x1="200" x2="209" y1="117" y2="111" /><line stroke="black" stroke-width="3" x1="209" x2="219" y1="111" y2="106" /><line stroke="black" stroke-width="3" x1="219" x2="227" y1="106" y2="101" /><line stroke="black" stroke-width="3" x1="227" x2="236" y1="101" y2="98" /><line stroke="black" stroke-width="3" x1="236" x2="245" y1="98" y2="97" /><line stroke="black" stroke-width="3" x1="245" x2="253" y1="97" y2="96" /><line stroke="black" stroke-width="3" x1="253" x2="261" y1="96" y2="97" /><line stroke="black" stroke-width="3" x1="261" x2="270" y1="97" y2="99" /><line stroke="black" stroke-width="3" x1="270" x2="279" y1="99" y2="102" /><line stroke="black" stroke-width="3" x1="279" x2="289" y1="102" y2="107" /><line stroke="black" stroke-width="3" x1="289" x2="298" y1="107" y2="115" /><line stroke="black" stroke-width="3" x1="298" x2="310" y1="115" y2="127" /><line stroke="black" stroke-width="3" x1="310" x2="319" y1="127" y2="139" /><line stroke="black" stroke-width="3" x1="319" x2="330" y1="139" y2="155" /><line stroke="black" stroke-width="3" x1="330" x2="339" y1="155" y2="173" /><line stroke="black" stroke-width="3" x1="339" x2="343" y1="173" y2="187" /><line stroke="black" stroke-width="3" x1="343" x2="345" y1="187" y2="199" /><line stroke="black" stroke-width="3" x1="345" x2="347" y1="199" y2="210" /><line stroke="black" stroke-width="3" x1="347" x2="346" y1="210" y2="220" /><line stroke="black" stroke-width="3" x1="346" x2="345" y1="220" y2="229" /><line stroke="black" stroke-width="3" x1="345" x2="342" y1="229" y2="237" /><line stroke="black" stroke-width="3" x1="342" x2="339" y1="237" y2="243" /><line stroke="black" stroke-width="3" x1="339" x2="337" y1="243" y2="248" /><line stroke="black" stroke-width="3" x1="337" x2="334" y1="248" y2="252" /><line stroke="black" stroke-width="3" x1="334" x2="333" y1="252" y2="256" /><line stroke="black" stroke-width="3" x1="333" x2="332" y1="256" y2="257" /><line stroke="black" stroke-width="3" x1="332" x2="331" y1="257" y2="259" /><line stroke="black" stroke-width="3" x1="331" x2="331" y1="259" y2="261" /><line stroke="black" stroke-width="3" x1="331" x2="330" y1="261" y2="261" /><line stroke="black" stroke-width="3" x1="330" x2="330" y1="261" y2="262" /><line stroke="black" stroke-width="3" x1="330" x2="331" y1="262" y2="263" /><line stroke="black" stroke-width="3" x1="331" x2="333" y1="263" y2="263" /><line stroke="black" stroke-width="3" x1="333" x2="335" y1="263" y2="263" /><line stroke="black" stroke-width="3" x1="335" x2="339" y1="263" y2="263" /><line stroke="black" stroke-width="3" x1="339" x2="345" y1="263" y2="263" /><line stroke="black" stroke-width="3" x1="345" x2="351" y1="263" y2="262" /><line stroke="black" stroke-width="3" x1="351" x2="360" y1="262" y2="260" /><line stroke="black" stroke-width="3" x1="360" x2="370" y1="260" y2="257" /><line stroke="black" stroke-width="3" x1="370" x2="382" y1="257" y2="252" /><line stroke="black" stroke-width="3" x1="382" x2="394" y1="252" y2="248" /><line stroke="black" stroke-width="3" x1="394" x2="405" y1="248" y2="243" /><line stroke="black" stroke-width="3" x1="405" x2="416" y1="243" y2="238" /><line stroke="black" stroke-width="3" x1="416" x2="426" y1="238" y2="234" /><line stroke="black" stroke-width="3" x1="426" x2="439" y1="234" y2="227" /><line stroke="black" stroke-width="3" x1="439" x2="448" y1="227" y2="221" /><line stroke="black" stroke-width="3" x1="448" x2="458" y1="221" y2="216" /><line stroke="black" stroke-width="3" x1="458" x2="467" y1="216" y2="210" /><line stroke="black" stroke-width="3" x1="467" x2="477" y1="210" y2="205" /><line stroke="black" stroke-width="3" x1="477" x2="484" y1="205" y2="201" /><line stroke="black" stroke-width="3" x1="484" x2="491" y1="201" y2="197" /><line stroke="black" stroke-width="3" x1="491" x2="499" y1="197" y2="193" /><line stroke="black" stroke-width="3" x1="499" x2="505" y1="193" y2="188" /><line stroke="black" stroke-width="3" x1="505" x2="509" y1="188" y2="186" /><line stroke="black" stroke-width="3" x1="509" x2="513" y1="186" y2="183" /><line stroke="black" stroke-width="3" x1="513" x2="516" y1="183" y2="182" /><line stroke="black" stroke-width="3" x1="516" x2="518" y1="182" y2="181" /><line stroke="black" stroke-width="3" x1="518" x2="519" y1="181" y2="180" /><line stroke="black" stroke-width="3" x1="519" x2="521" y1="180" y2="179" /><line stroke="black" stroke-width="3" x1="521" x2="522" y1="179" y2="179" /><line stroke="black" stroke-width="3" x1="522" x2="521" y1="179" y2="179" /><line stroke="black" stroke-width="3" x1="521" x2="518" y1="179" y2="179" /><line stroke="black" stroke-width="3" x1="518" x2="513" y1="179" y2="179" /><line stroke="black" stroke-width="3" x1="513" x2="507" y1="179" y2="178" /><line stroke="black" stroke-width="3" x1="507" x2="497" y1="178" y2="176" /><line stroke="black" stroke-width="3" x1="497" x2="487" y1="176" y2="171" /><line stroke="black" stroke-width="3" x1="487" x2="479" y1="171" y2="167" /><line stroke="black" stroke-width="3" x1="479" x2="470" y1="167" y2="162" /><line stroke="black" stroke-width="3" x1="470" x2="461" y1="162" y2="155" /><line stroke="black" stroke-width="3" x1="461" x2="453" y1="155" y2="148" /><line stroke="black" stroke-width="3" x1="453" x2="446" y1="148" y2="139" /><line stroke="black" stroke-width="3" x1="446" x2="440" y1="139" y2="130" /><line stroke="black" stroke-width="3" x1="440" x2="434" y1="130" y2="122" /><line stroke="black" stroke-width="3" x1="434" x2="431" y1="122" y2="117" /><line stroke="black" stroke-width="3" x1="431" x2="428" y1="117" y2="111" /><line stroke="black" stroke-width="3" x1="428" x2="426" y1="111" y2="109" /><line stroke="black" stroke-width="3" x1="426" x2="426" y1="109" y2="106" /><line stroke="black" stroke-width="3" x1="426" x2="425" y1="106" y2="105" /><line stroke="black" stroke-width="3" x1="425" x2="425" y1="105" y2="104" /><line stroke="black" stroke-width="3" x1="425" x2="425" y1="104" y2="102" /><line stroke="black" stroke-width="3" x1="425" x2="425" y1="102" y2="101" /><line stroke="black" stroke-width="3" x1="425" x2="425" y1="101" y2="100" /><line stroke="black" stroke-width="3" x1="425" x2="425" y1="100" y2="98" /><line stroke="black" stroke-width="3" x1="425" x2="426" y1="98" y2="98" /><line stroke="black" stroke-width="3" x1="426" x2="427" y1="98" y2="97" /><line stroke="black" stroke-width="3" x1="427" x2="427" y1="97" y2="96" /><line stroke="black" stroke-width="3" x1="427" x2="427" y1="96" y2="95" /><line stroke="black" stroke-width="3" x1="427" x2="427" y1="95" y2="94" /><line stroke="black" stroke-width="3" x1="427" x2="428" y1="94" y2="94" /><line stroke="black" stroke-width="3" x1="428" x2="428" y1="94" y2="93" /></svg>